<svg viewBox="0 0 450 450" xmlns="http://www.w3.org/2000/svg">
  <defs>
    <linearGradient id="gradContact" x1="0%" y1="0%" x2="100%" y2="100%">
      <stop offset="0%" stopColor="#0f766e"/>
      <stop offset="100%" stopColor="#06b6d4"/>
    </linearGradient>
  </defs>
  <rect width="450" height="450" fill="#f0f9f8"/>
  <circle cx="225" cy="120" r="55" fill="#d4a574"/>
  <path d="M 185 120 Q 225 70 265 120" fill="#a8805c"/>
  <path d="M 200 125 Q 190 110 190 100" stroke="#0f766e" stroke-width="5" fill="none" stroke-linecap="round"/>
  <circle cx="190" cy="100" r="10" fill="none" stroke="#0f766e" stroke-width="4"/>
  <path d="M 250 125 Q 260 110 260 100" stroke="#0f766e" stroke-width="5" fill="none" stroke-linecap="round"/>
  <circle cx="260" cy="100" r="10" fill="none" stroke="#0f766e" stroke-width="4"/>
  <line x1="190" y1="100" x2="260" y2="100" stroke="#0f766e" stroke-width="3" stroke-linecap="round"/>
  <rect x="190" y="180" width="70" height="100" rx="12" fill="#e0e7ff" stroke="url(#gradContact)" stroke-width="3"/>
  <circle cx="225" cy="210" r="12" fill="#06b6d4"/>
  <rect x="80" y="280" width="90" height="120" rx="12" fill="white" stroke="#06b6d4" stroke-width="2" opacity="0.9"/>
  <circle cx="100" cy="300" r="8" fill="#0f766e"/>
  <line x1="115" y1="300" x2="155" y2="300" stroke="#999" stroke-width="2"/>
  <rect x="280" y="280" width="90" height="120" rx="12" fill="white" stroke="#06b6d4" stroke-width="2" opacity="0.9"/>
  <path d="M 305 310 L 335 310" stroke="#0f766e" stroke-width="3" stroke-linecap="round"/>
  <circle cx="320" cy="295" r="8" fill="none" stroke="#0f766e" stroke-width="2"/>
  <line x1="225" y1="280" x2="100" y2="310" stroke="#06b6d4" stroke-width="2" stroke-dasharray="5,5" opacity="0.4"/>
  <line x1="225" y1="280" x2="320" y2="310" stroke="#06b6d4" stroke-width="2" stroke-dasharray="5,5" opacity="0.4"/>
  <circle cx="50" cy="50" r="22" fill="#f87171"/>
  <path d="M 50 50 L 50 65 M 40 55 L 60 55" stroke="white" stroke-width="3" stroke-linecap="round"/>
</svg>
