<svg viewBox="0 0 400 200" xmlns="http://www.w3.org/2000/svg">
  <defs>
    <linearGradient id="gradGroup" x1="0%" y1="0%" x2="100%" y2="100%">
      <stop offset="0%" stopColor="#0f766e"/>
      <stop offset="100%" stopColor="#06b6d4"/>
    </linearGradient>
  </defs>
  <rect width="400" height="200" fill="#f0f9f8"/>
  <!-- Profile 1 -->
  <circle cx="80" cy="60" r="35" fill="#d4a574"/>
  <rect x="55" y="105" width="50" height="65" rx="10" fill="#e0e7ff" stroke="url(#gradGroup)" stroke-width="2"/>
  <!-- Profile 2 (center - highlighted) -->
  <circle cx="200" cy="55" r="40" fill="#9b7b5c" stroke="url(#gradGroup)" stroke-width="3"/>
  <rect x="170" y="105" width="60" height="75" rx="10" fill="white" stroke="url(#gradGroup)" stroke-width="3"/>
  <circle cx="200" cy="130" r="10" fill="none" stroke="url(#gradGroup)" stroke-width="2"/>
  <!-- Profile 3 -->
  <circle cx="320" cy="60" r="35" fill="#c4926b"/>
  <rect x="295" y="105" width="50" height="65" rx="10" fill="#f3e8ff" stroke="url(#gradGroup)" stroke-width="2"/>
  <!-- Stars -->
  <polygon points="50,20 55,35 71,35 59,45 64,60 50,50 36,60 41,45 29,35 45,35" fill="#fbbf24" opacity="0.7"/>
  <polygon points="350,25 355,40 371,40 359,50 364,65 350,55 336,65 341,50 329,40 345,40" fill="#fbbf24" opacity="0.7"/>
</svg>
